<?xml version="1.0" encoding="utf-8"?>
<!-- Generator: Adobe Illustrator 24.0.3, SVG Export Plug-In . SVG Version: 6.00 Build 0)  -->
<svg version="1.1" id="Layer_1" xmlns="http://www.w3.org/2000/svg" xmlns:xlink="http://www.w3.org/1999/xlink" x="0px" y="0px"
	 viewBox="0 0 589.57 424.82" style="enable-background:new 0 0 589.57 424.82;" xml:space="preserve">
<style type="text/css">
	.st0{fill:#ED4923;}
</style>
<g>
	<g>
		<g>
			<path class="st0" d="M327.98,350.58c-101.19,0-215.89,0-215.89-78.84c0-73.89,93.19-163.14,208.92-163.14
				c115.72,0,208.92,89.24,208.92,163.14C529.93,344.93,446.23,350.58,327.98,350.58z M321.01,117.81
				c-89.9,0-199.72,71.03-199.72,153.93c0,64.51,89.58,69.63,206.68,69.63c116.43,0,192.75-4.85,192.75-69.63
				C520.73,188.84,410.91,117.81,321.01,117.81z"/>
		</g>
		<g>
			<path class="st0" d="M301.75,331.4c-101.19,0-215.89,0-215.89-78.83c0-73.89,93.19-163.14,208.92-163.14
				s208.92,89.24,208.92,163.14C503.71,325.74,420,331.4,301.75,331.4z M294.79,98.63c-89.9,0-199.72,71.03-199.72,153.93
				c0,64.5,89.58,69.63,206.68,69.63c116.43,0,192.75-4.85,192.75-69.63C494.51,169.66,384.69,98.63,294.79,98.63z"/>
		</g>
		<g>
			<path class="st0" d="M275.53,312.21c-101.19,0-215.89,0-215.89-78.83c0-73.89,93.19-163.14,208.92-163.14
				s208.92,89.24,208.92,163.14C477.48,306.56,393.78,312.21,275.53,312.21z M268.56,79.44c-89.9,0-199.72,71.03-199.72,153.93
				c0,64.5,89.58,69.63,206.68,69.63c116.43,0,192.75-4.85,192.75-69.63C468.28,150.48,358.47,79.44,268.56,79.44z"/>
		</g>
	</g>
</g>
</svg>
